<svg xmlns:xlink="http://www.w3.org/1999/xlink" xmlns="http://www.w3.org/2000/svg" class="css-ze2te4 css-qd6ojx" viewBox="0 0 100 79.91712631102648" width="110"  height="88" ><g transform="translate(-13.873707350243281, -25.13028563537594) scale(1.2710680163747758)" class="css-16qc1jc" fill="#FFFF00"><polygon xmlns="http://www.w3.org/2000/svg" points="26.959,56.861 10.915,32.968 49.999,19.771 50.119,19.811 89.589,32.967 73.342,56.853 66.02,33.445 66.734,33.221   73.594,55.147 88.411,33.366 50.001,20.562 12.085,33.365 26.707,55.139 33.475,33.222 34.191,33.444 " fill="#FFFF00"></polygon><polygon xmlns="http://www.w3.org/2000/svg" points="49.999,82.645 32.843,69.055 27.657,52.282 28.374,52.062 33.49,68.611 50.001,81.689 66.661,68.61 71.822,52.061   72.539,52.283 67.308,69.056 " fill="#FFFF00"></polygon><polygon xmlns="http://www.w3.org/2000/svg" points="33.506,68.991 32.827,68.675 42.648,47.639 34.147,46.539 34.244,45.794 43.761,47.027 " fill="#FFFF00"></polygon><polygon xmlns="http://www.w3.org/2000/svg" points="56.669,77.109 50.001,73.267 43.394,77.108 43.017,76.46 49.999,72.399 57.044,76.459 " fill="#FFFF00"></polygon><path xmlns="http://www.w3.org/2000/svg" d="M50.128,73.363l-4.043-3.779l3.787-4.052l4.044,3.779L50.128,73.363z M47.145,69.549l2.947,2.754l2.764-2.956l-2.948-2.754  L47.145,69.549z" fill="#FFFF00"></path><polygon xmlns="http://www.w3.org/2000/svg" points="66.336,68.998 55.589,47.025 65.549,45.794 65.641,46.538 56.726,47.641 67.01,68.668 " fill="#FFFF00"></polygon></g></svg>